<svg width="51" height="50" viewBox="0 0 51 50" fill="none" xmlns="http://www.w3.org/2000/svg">
<g clip-path="url(#clip0_1023_32222)">
<mask id="mask0_1023_32222" style="mask-type:luminance" maskUnits="userSpaceOnUse" x="0" y="0" width="51" height="50">
<path d="M50.0605 49.5605V0.439453H0.939453V49.5605H50.0605Z" fill="white" stroke="white" stroke-width="0.878909"/>
</mask>
<g mask="url(#mask0_1023_32222)">
<path d="M39.9768 13.2591L42.9064 18.3334M44.8632 16.503C42.9568 16.0838 40.933 17.2522 40.343 19.1129M38.02 15.0894C39.9264 15.5087 41.9501 14.3402 42.5402 12.4797M31.6783 8.43935L32.4586 10.0175L34.2155 9.9042L34.9958 11.4823L36.7526 11.369M33.1432 5.90224L33.9234 7.48036L35.6804 7.36709L36.4606 8.94521L38.2175 8.83193M26.4542 9.2707C26.6682 9.43406 26.9301 9.52236 27.1994 9.52197C27.8787 9.52197 28.4295 8.97119 28.4295 8.29179C28.4295 7.6125 28.0467 6.43457 27.5923 5.26933M27.5923 5.26933L28.4295 4.10019M27.5923 5.26933H25.4998L24.035 8.17041L22.5701 5.26933M15.3621 9.46855L16.8994 9.88047M18.3169 7.4916L17.2232 5.59726M17.2232 5.59726L15.329 6.69101M17.2232 5.59726L15.3684 12.5196M9.14258 27.9299V21.8695M6.21289 22.0705V23.5353C5.40391 23.5353 4.74805 24.1912 4.74805 25.0002C4.74805 25.8092 5.40391 26.465 6.21289 26.465V27.9299M9.62822 11.8164L11.912 14.4891C12.31 14.9548 12.4806 15.5435 12.156 16.1056C11.8806 16.5828 11.3002 16.802 10.716 16.4648L9.55801 15.7963C8.51113 15.1918 7.60234 14.7651 6.99199 15.8223C6.65537 16.4055 6.45742 17.3891 6.45742 17.3891L10.0064 19.4381M10.0064 30.5624L8.82559 32.9356C8.17354 34.2463 7.6873 35.3823 8.29756 36.4395C8.63428 37.0226 9.38711 37.6857 9.38711 37.6857L12.9361 35.6368M6.17998 32.7717L11.4713 33.0995M15.9999 37.0499C16.7908 37.1549 17.4729 37.848 16.9638 38.7299C16.4708 39.5837 14.8509 39.8497 14.1951 40.9855C13.6865 41.8664 14.0608 43.0346 15.0312 43.5947C16.0014 44.155 17.2002 43.8949 17.7088 43.0142C18.0776 42.3753 18.3262 41.3205 18.3262 41.3205L18.8385 41.6162M27.7821 41.2125C26.6656 40.5204 24.8554 40.5204 23.7389 41.2125C22.6544 41.8846 22.9982 43.4082 24.2227 43.4082M23.2175 45.6039C24.334 46.2959 26.1443 46.2959 27.2608 45.6039C28.3452 44.9318 28.0015 43.4082 26.7771 43.4082M34.2599 43.3327L32.4011 40.1132M36.9962 41.7528L35.1374 38.5333M31.3968 40.245C33.0011 40.2451 34.9518 39.1189 35.7537 37.7296M38.0107 41.639C36.4065 41.6388 34.4559 42.7649 33.6539 44.1544M45.0353 33.9939C44.0888 33.4475 42.8785 33.7718 42.332 34.7184M42.332 34.7184C41.7855 35.6648 42.1098 36.8751 43.0563 37.4216M42.332 34.7184C42.8785 33.7718 42.5542 32.5615 41.6076 32.015C40.6611 31.4686 39.4509 31.7929 38.9044 32.7394C38.3579 33.6858 38.6822 34.8962 39.6287 35.4427C40.5753 35.9891 41.7855 35.6648 42.332 34.7184ZM41.9662 25.0002H44.6918M44.6918 25.0002C45.5009 25.0002 46.1566 24.3443 46.1566 23.5353C46.1566 22.7264 45.5009 22.0705 44.6918 22.0705M44.6918 25.0002C45.5009 25.0002 46.1566 25.6561 46.1566 26.465C46.1566 27.274 45.5009 27.9299 44.6918 27.9299M12.951 25.0002C12.951 31.9308 18.5693 37.549 25.4998 37.549C32.4304 37.549 38.0486 31.9308 38.0486 25.0002C38.0486 18.0697 32.4304 12.4514 25.4998 12.4514C19.5781 12.4514 14.6144 16.5531 13.2948 22.0705M42.2321 7.42373C46.8741 11.8439 49.7672 18.0843 49.7672 25.0002C49.7672 38.4027 38.9023 49.2676 25.4998 49.2676C23.8508 49.2685 22.2059 49.102 20.5904 48.7707M17.7937 48.0185C8.16885 44.7977 1.23242 35.709 1.23242 25.0002C1.23242 11.5978 12.0974 0.732906 25.4998 0.732906C30.7058 0.732906 35.5287 2.37217 39.4809 5.1626" stroke="url(#paint0_linear_1023_32222)" stroke-width="0.878909" stroke-miterlimit="10" stroke-linecap="round" stroke-linejoin="round"/>
</g>
<path d="M25.5006 33.0141L24.3659 31.9968C23.0486 30.8099 21.9595 29.7861 21.0987 28.9253C20.2379 28.0645 19.5532 27.2917 19.0445 26.607C18.5359 25.9222 18.1804 25.2929 17.9783 24.7191C17.7761 24.1452 17.675 23.5583 17.675 22.9583C17.675 21.7323 18.0859 20.7085 18.9076 19.8868C19.7292 19.0651 20.7531 18.6543 21.9791 18.6543C22.6573 18.6543 23.3029 18.7978 23.9159 19.0847C24.5289 19.3716 25.0571 19.776 25.5006 20.2977C25.944 19.776 26.4722 19.3716 27.0852 19.0847C27.6982 18.7978 28.3438 18.6543 29.0221 18.6543C30.2481 18.6543 31.2719 19.0651 32.0936 19.8868C32.9153 20.7085 33.3261 21.7323 33.3261 22.9583C33.3261 23.5583 33.225 24.1452 33.0229 24.7191C32.8207 25.2929 32.4653 25.9222 31.9566 26.607C31.448 27.2917 30.7632 28.0645 29.9024 28.9253C29.0416 29.7861 27.9526 30.8099 26.6353 31.9968L25.5006 33.0141Z" fill="url(#paint1_linear_1023_32222)"/>
<path d="M25.5006 33.0141L24.3659 31.9968C23.0486 30.8099 21.9595 29.7861 21.0987 28.9253C20.2379 28.0645 19.5532 27.2917 19.0445 26.607C18.5359 25.9222 18.1804 25.2929 17.9783 24.7191C17.7761 24.1452 17.675 23.5583 17.675 22.9583C17.675 21.7323 18.0859 20.7085 18.9076 19.8868C19.7292 19.0651 20.7531 18.6543 21.9791 18.6543C22.6573 18.6543 23.3029 18.7978 23.9159 19.0847C24.5289 19.3716 25.0571 19.776 25.5006 20.2977C25.944 19.776 26.4722 19.3716 27.0852 19.0847C27.6982 18.7978 28.3438 18.6543 29.0221 18.6543C30.2481 18.6543 31.2719 19.0651 32.0936 19.8868C32.9153 20.7085 33.3261 21.7323 33.3261 22.9583C33.3261 23.5583 33.225 24.1452 33.0229 24.7191C32.8207 25.2929 32.4653 25.9222 31.9566 26.607C31.448 27.2917 30.7632 28.0645 29.9024 28.9253C29.0416 29.7861 27.9526 30.8099 26.6353 31.9968L25.5006 33.0141Z" fill="url(#paint2_linear_1023_32222)"/>
</g>
<defs>
<linearGradient id="paint0_linear_1023_32222" x1="1.23242" y1="25.0002" x2="49.7672" y2="25.0002" gradientUnits="userSpaceOnUse">
<stop stop-color="#BF7B25"/>
<stop offset="0.572115" stop-color="#E7DC87"/>
<stop offset="1" stop-color="#AF8D4C"/>
</linearGradient>
<linearGradient id="paint1_linear_1023_32222" x1="32.1878" y1="18.6543" x2="21.9435" y2="27.1912" gradientUnits="userSpaceOnUse">
<stop stop-color="#8120FF"/>
<stop offset="1" stop-color="#2C0D61"/>
</linearGradient>
<linearGradient id="paint2_linear_1023_32222" x1="17.675" y1="25.8342" x2="33.3261" y2="25.8342" gradientUnits="userSpaceOnUse">
<stop stop-color="#BF7B25"/>
<stop offset="0.572115" stop-color="#E7DC87"/>
<stop offset="1" stop-color="#AF8D4C"/>
</linearGradient>
<clipPath id="clip0_1023_32222">
<rect width="50" height="50" fill="white" transform="translate(0.5)"/>
</clipPath>
</defs>
</svg>
