<svg width="29" height="35" viewBox="0 0 29 35" fill="none" xmlns="http://www.w3.org/2000/svg">
<path d="M23.2328 21.9591C22.9087 23.7696 22.0376 25.4373 20.7369 26.7377C19.4363 28.0381 17.7684 28.9088 15.9578 29.2326C15.8891 29.2436 15.8196 29.2493 15.75 29.2497C15.4364 29.2497 15.1344 29.1317 14.9037 28.9194C14.673 28.707 14.5306 28.4157 14.5046 28.1032C14.4787 27.7908 14.5711 27.4799 14.7636 27.2324C14.956 26.9849 15.2345 26.8188 15.5437 26.7669C18.1328 26.331 20.3297 24.1341 20.7687 21.5404C20.8243 21.2134 21.0074 20.9219 21.2779 20.73C21.5483 20.538 21.884 20.4614 22.2109 20.5169C22.5379 20.5725 22.8294 20.7556 23.0213 21.0261C23.2133 21.2965 23.2899 21.6322 23.2344 21.9591H23.2328ZM28.25 20.4997C28.25 24.1465 26.8013 27.6438 24.2227 30.2225C21.6441 32.8011 18.1467 34.2497 14.5 34.2497C10.8533 34.2497 7.35591 32.8011 4.77728 30.2225C2.19866 27.6438 0.75 24.1465 0.75 20.4997C0.75 16.1372 2.46875 11.6763 5.85313 7.24194C5.96025 7.10152 6.09592 6.98541 6.25119 6.90124C6.40645 6.81707 6.57779 6.76676 6.75391 6.75362C6.93004 6.74048 7.10694 6.76481 7.27298 6.82501C7.43902 6.88521 7.59041 6.97991 7.71719 7.10287L11.4859 10.7607L14.9234 1.32162C14.9921 1.13336 15.105 0.964373 15.2527 0.828901C15.4004 0.69343 15.5785 0.595446 15.7719 0.543211C15.9654 0.490977 16.1686 0.486022 16.3644 0.528765C16.5601 0.571508 16.7428 0.660696 16.8969 0.78881C20.3141 3.62475 28.25 11.2107 28.25 20.4997ZM25.75 20.4997C25.75 13.2982 20.1578 7.07475 16.6547 3.88568L13.175 13.4279C13.1036 13.6239 12.9843 13.7989 12.8279 13.9369C12.6715 14.075 12.4831 14.1717 12.2798 14.2183C12.0765 14.2649 11.8647 14.2599 11.6638 14.2037C11.463 14.1475 11.2793 14.0419 11.1297 13.8966L7.00937 9.89975C4.51406 13.5013 3.25 17.0622 3.25 20.4997C3.25 23.4834 4.43526 26.3449 6.54505 28.4547C8.65483 30.5645 11.5163 31.7497 14.5 31.7497C17.4837 31.7497 20.3452 30.5645 22.455 28.4547C24.5647 26.3449 25.75 23.4834 25.75 20.4997Z" fill="#0F051E"/>
</svg>
