<svg width="22" height="31" viewBox="0 0 22 31" fill="none" xmlns="http://www.w3.org/2000/svg">
<path d="M21.5 10.9991C21.5002 8.98641 20.9219 7.01606 19.834 5.32271C18.7462 3.62935 17.1945 2.28434 15.3639 1.44784C13.5333 0.611351 11.5008 0.318625 9.50848 0.604528C7.5162 0.89043 5.64806 1.74291 4.12654 3.06045C2.60501 4.378 1.49422 6.10508 0.926449 8.03603C0.358673 9.96698 0.357835 12.0204 0.924035 13.9519C1.49023 15.8833 2.59961 17.6113 4.12006 18.93C5.6405 20.2488 7.50795 21.1028 9.5 21.3904V23.4991H6C5.60218 23.4991 5.22064 23.6571 4.93934 23.9384C4.65804 24.2198 4.5 24.6013 4.5 24.9991C4.5 25.3969 4.65804 25.7785 4.93934 26.0598C5.22064 26.3411 5.60218 26.4991 6 26.4991H9.5V28.9991C9.5 29.3969 9.65804 29.7785 9.93934 30.0598C10.2206 30.3411 10.6022 30.4991 11 30.4991C11.3978 30.4991 11.7794 30.3411 12.0607 30.0598C12.342 29.7785 12.5 29.3969 12.5 28.9991V26.4991H16C16.3978 26.4991 16.7794 26.3411 17.0607 26.0598C17.342 25.7785 17.5 25.3969 17.5 24.9991C17.5 24.6013 17.342 24.2198 17.0607 23.9384C16.7794 23.6571 16.3978 23.4991 16 23.4991H12.5V21.3904C14.9975 21.0267 17.2809 19.7769 18.9333 17.8692C20.5856 15.9614 21.4966 13.523 21.5 10.9991ZM3.5 10.9991C3.5 9.51575 3.93987 8.0657 4.76398 6.83233C5.58809 5.59896 6.75943 4.63767 8.12987 4.07001C9.50032 3.50235 11.0083 3.35383 12.4632 3.64322C13.918 3.93261 15.2544 4.64691 16.3033 5.69581C17.3522 6.7447 18.0665 8.08107 18.3559 9.53593C18.6453 10.9908 18.4968 12.4988 17.9291 13.8692C17.3614 15.2397 16.4001 16.411 15.1668 17.2351C13.9334 18.0592 12.4834 18.4991 11 18.4991C9.01159 18.4968 7.10528 17.7059 5.69926 16.2999C4.29324 14.8938 3.50232 12.9875 3.5 10.9991Z" fill="#0F051E"/>
</svg>
