<svg width="61" height="60" viewBox="0 0 61 60" fill="none" xmlns="http://www.w3.org/2000/svg">
<g clip-path="url(#clip0_1006_31621)">
<mask id="mask0_1006_31621" style="mask-type:luminance" maskUnits="userSpaceOnUse" x="0" y="0" width="61" height="60">
<path d="M59.9729 59.4727V0.527344H1.02759V59.4727H59.9729Z" fill="white" stroke="white" stroke-width="1.05469"/>
</mask>
<g mask="url(#mask0_1006_31621)">
<path d="M47.8724 15.9109L51.388 22.0001M53.7361 19.8036C51.4484 19.3005 49.0199 20.7027 48.3118 22.9355M45.5243 18.1073C47.8119 18.6104 50.2404 17.2083 50.9485 14.9756M37.9142 10.1272L38.8506 12.021L40.9589 11.885L41.8952 13.7788L44.0034 13.6428M39.672 7.08269L40.6084 8.97644L42.7167 8.8405L43.653 10.7342L45.7612 10.5983M31.6453 11.1248C31.9021 11.3209 32.2164 11.4268 32.5395 11.4264C33.3547 11.4264 34.0156 10.7654 34.0156 9.95015C34.0156 9.13499 33.5563 7.72148 33.011 6.3232M33.011 6.3232L34.0156 4.92023M33.011 6.3232H30.5L28.7422 9.80449L26.9844 6.3232M18.3348 11.3623L20.1795 11.8566M21.8805 8.98992L20.5681 6.71671M20.5681 6.71671L18.295 8.02921M20.5681 6.71671L18.3423 15.0235M10.8713 33.5159V26.2434M7.35571 26.4846V28.2424C6.38493 28.2424 5.5979 29.0294 5.5979 30.0002C5.5979 30.971 6.38493 31.758 7.35571 31.758V33.5159M11.4541 14.1797L14.1947 17.3869C14.6722 17.9457 14.8769 18.6521 14.4874 19.3267C14.1569 19.8994 13.4605 20.1625 12.7595 19.7578L11.3699 18.9555C10.1136 18.2302 9.02306 17.7182 8.29063 18.9867C7.88669 19.6866 7.64915 20.8669 7.64915 20.8669L11.908 23.3257M11.908 36.6749L10.4909 39.5228C9.70849 41.0955 9.12501 42.4588 9.85731 43.7273C10.2614 44.4271 11.1648 45.2229 11.1648 45.2229L15.4236 42.7642M7.31622 39.326L13.6658 39.7194M19.1001 44.4599C20.0492 44.5859 20.8678 45.4177 20.2568 46.4759C19.6652 47.5004 17.7213 47.8196 16.9344 49.1827C16.3241 50.2397 16.7733 51.6415 17.9376 52.3137C19.1019 52.986 20.5405 52.6739 21.1508 51.617C21.5934 50.8503 21.8916 49.5846 21.8916 49.5846L22.5064 49.9394M33.2388 49.455C31.899 48.6245 29.7267 48.6245 28.3869 49.455C27.0855 50.2615 27.4981 52.0898 28.9674 52.0898M27.7612 54.7247C29.101 55.5551 31.2734 55.5551 32.6133 54.7247C33.9145 53.9182 33.502 52.0898 32.0327 52.0898M41.0121 51.9993L38.7815 48.1358M44.2957 50.1034L42.0651 46.24M37.5764 48.294C39.5015 48.2941 41.8423 46.9427 42.8047 45.2755M45.5131 49.9668C43.5881 49.9665 41.2473 51.3179 40.2849 52.9853M53.9425 40.7927C52.8068 40.1369 51.3545 40.5261 50.6987 41.662M50.6987 41.662C50.0429 42.7978 50.432 44.2501 51.5679 44.9059M50.6987 41.662C51.3545 40.5261 50.9653 39.0738 49.8294 38.418C48.6936 37.7623 47.2413 38.1514 46.5855 39.2872C45.9297 40.423 46.3189 41.8754 47.4547 42.5312C48.5906 43.1869 50.0429 42.7978 50.6987 41.662ZM50.2597 30.0002H53.5304M53.5304 30.0002C54.5013 30.0002 55.2882 29.2132 55.2882 28.2424C55.2882 27.2716 54.5013 26.4846 53.5304 26.4846M53.5304 30.0002C54.5013 30.0002 55.2882 30.7873 55.2882 31.758C55.2882 32.7288 54.5013 33.5159 53.5304 33.5159M15.4414 30.0002C15.4414 38.3169 22.1834 45.0588 30.5 45.0588C38.8167 45.0588 45.5586 38.3169 45.5586 30.0002C45.5586 21.6837 38.8167 14.9416 30.5 14.9416C23.394 14.9416 17.4375 19.8637 15.854 26.4846M50.5788 8.90847C56.1492 14.2127 59.6209 21.7011 59.6209 30.0002C59.6209 46.0833 46.5831 59.1211 30.5 59.1211C28.5211 59.1221 26.5473 58.9224 24.6088 58.5248M21.2527 57.6221C9.70286 53.7572 1.37915 42.8508 1.37915 30.0002C1.37915 13.9173 14.4171 0.879486 30.5 0.879486C36.7472 0.879486 42.5347 2.8466 47.2773 6.19511" stroke="url(#paint0_linear_1006_31621)" stroke-width="1.05469" stroke-miterlimit="10" stroke-linecap="round" stroke-linejoin="round"/>
</g>
<path d="M30.5 39.6166L29.1384 38.3958C27.5576 36.9715 26.2507 35.7429 25.2178 34.71C24.1848 33.677 23.3631 32.7497 22.7527 31.928C22.1423 31.1063 21.7159 30.3511 21.4733 29.6625C21.2307 28.9739 21.1094 28.2696 21.1094 27.5496C21.1094 26.0784 21.6024 24.8498 22.5884 23.8638C23.5744 22.8778 24.803 22.3848 26.2742 22.3848C27.0881 22.3848 27.8628 22.5569 28.5984 22.9013C29.334 23.2456 29.9679 23.7308 30.5 24.3568C31.0321 23.7308 31.666 23.2456 32.4016 22.9013C33.1372 22.5569 33.9119 22.3848 34.7258 22.3848C36.197 22.3848 37.4256 22.8778 38.4116 23.8638C39.3976 24.8498 39.8906 26.0784 39.8906 27.5496C39.8906 28.2696 39.7693 28.9739 39.5267 29.6625C39.2841 30.3511 38.8577 31.1063 38.2473 31.928C37.6369 32.7497 36.8152 33.677 35.7822 34.71C34.7493 35.7429 33.4424 36.9715 31.8616 38.3958L30.5 39.6166Z" fill="url(#paint1_linear_1006_31621)"/>
<path d="M30.5 39.6166L29.1384 38.3958C27.5576 36.9715 26.2507 35.7429 25.2178 34.71C24.1848 33.677 23.3631 32.7497 22.7527 31.928C22.1423 31.1063 21.7159 30.3511 21.4733 29.6625C21.2307 28.9739 21.1094 28.2696 21.1094 27.5496C21.1094 26.0784 21.6024 24.8498 22.5884 23.8638C23.5744 22.8778 24.803 22.3848 26.2742 22.3848C27.0881 22.3848 27.8628 22.5569 28.5984 22.9013C29.334 23.2456 29.9679 23.7308 30.5 24.3568C31.0321 23.7308 31.666 23.2456 32.4016 22.9013C33.1372 22.5569 33.9119 22.3848 34.7258 22.3848C36.197 22.3848 37.4256 22.8778 38.4116 23.8638C39.3976 24.8498 39.8906 26.0784 39.8906 27.5496C39.8906 28.2696 39.7693 28.9739 39.5267 29.6625C39.2841 30.3511 38.8577 31.1063 38.2473 31.928C37.6369 32.7497 36.8152 33.677 35.7822 34.71C34.7493 35.7429 33.4424 36.9715 31.8616 38.3958L30.5 39.6166Z" fill="url(#paint2_linear_1006_31621)"/>
</g>
<defs>
<linearGradient id="paint0_linear_1006_31621" x1="1.37915" y1="30.0003" x2="59.6209" y2="30.0003" gradientUnits="userSpaceOnUse">
<stop stop-color="#BF7B25"/>
<stop offset="0.572115" stop-color="#E7DC87"/>
<stop offset="1" stop-color="#AF8D4C"/>
</linearGradient>
<linearGradient id="paint1_linear_1006_31621" x1="38.5247" y1="22.3848" x2="26.2315" y2="32.6291" gradientUnits="userSpaceOnUse">
<stop stop-color="#8120FF"/>
<stop offset="1" stop-color="#2C0D61"/>
</linearGradient>
<linearGradient id="paint2_linear_1006_31621" x1="21.1094" y1="31.0007" x2="39.8906" y2="31.0007" gradientUnits="userSpaceOnUse">
<stop stop-color="#BF7B25"/>
<stop offset="0.572115" stop-color="#E7DC87"/>
<stop offset="1" stop-color="#AF8D4C"/>
</linearGradient>
<clipPath id="clip0_1006_31621">
<rect width="60" height="60" fill="white" transform="translate(0.5)"/>
</clipPath>
</defs>
</svg>
